HIERARCHY
ROOT Root
{
  OFFSET 0.0 0.0 0.0
  CHANNELS 6 Xposition Yposition Zposition Zrotation Yrotation Xrotation
  JOINT Hips
  {
    OFFSET 0.0 100.0 0.0
    CHANNELS 6 Xposition Yposition Zposition Zrotation Yrotation Xrotation
    JOINT Spine1
    {
      OFFSET 5.003913 -0.037094 -0.013727
      CHANNELS 3 Zrotation Yrotation Xrotation
      JOINT Spine2
      {
        OFFSET 7.125363 -1e-06 0.0
        CHANNELS 3 Zrotation Yrotation Xrotation
        JOINT Chest
        {
          OFFSET 7.594027 1e-06 0.0
          CHANNELS 3 Zrotation Yrotation Xrotation
          JOINT Neck1
          {
            OFFSET 26.313086 -0.460272 -0.181672
            CHANNELS 3 Zrotation Yrotation Xrotation
            JOINT Neck2
            {
              OFFSET 8.045911 0.0 0.0
              CHANNELS 3 Zrotation Yrotation Xrotation
              JOINT Head
              {
                OFFSET 6.432774 0.0 0.0
                CHANNELS 3 Zrotation Yrotation Xrotation
                JOINT HeadEnd
                {
                  OFFSET 16.169773 0.06451 0.00362
                  CHANNELS 3 Zrotation Yrotation Xrotation
                }
                JOINT Jaw
                {
                  OFFSET 0.108741 3.12938 0.002639
                  CHANNELS 3 Zrotation Yrotation Xrotation
                }
                JOINT LeftEye
                {
                  OFFSET 4.45173 8.166359 3.206392
                  CHANNELS 3 Zrotation Yrotation Xrotation
                }
                JOINT RightEye
                {
                  OFFSET 4.436895 8.135758 -3.222429
                  CHANNELS 3 Zrotation Yrotation Xrotation
                }
              }
            }
          }
          JOINT LeftShoulder
          {
            OFFSET 23.218927 5.195579 1.621656
            CHANNELS 3 Zrotation Yrotation Xrotation
            JOINT LeftArm
            {
              OFFSET 15.902118 2e-06 -2e-06
              CHANNELS 3 Zrotation Yrotation Xrotation
              JOINT LeftForeArm
              {
                OFFSET 28.739307 0.0 -1e-06
                CHANNELS 3 Zrotation Yrotation Xrotation
                JOINT LeftHand
                {
                  OFFSET 27.093981 -4e-06 0.0
                  CHANNELS 3 Zrotation Yrotation Xrotation
                  JOINT LeftHandThumb1
                  {
                    OFFSET 2.276781 3.380274 0.83384
                    CHANNELS 3 Zrotation Yrotation Xrotation
                    JOINT LeftHandThumb2
                    {
                      OFFSET 4.705309 -1e-06 -1e-06
                      CHANNELS 3 Zrotation Yrotation Xrotation
                      JOINT LeftHandThumb3
                      {
                        OFFSET 2.798515 0.0 3e-06
                        CHANNELS 3 Zrotation Yrotation Xrotation
                        JOINT LeftHandThumbEnd
                        {
                          OFFSET 3.180793 4e-06 -4e-06
                          CHANNELS 3 Zrotation Yrotation Xrotation
                        }
                      }
                    }
                  }
                  JOINT LeftHandIndex1
                  {
                    OFFSET 3.247786 2.352677 0.137192
                    CHANNELS 3 Zrotation Yrotation Xrotation
                    JOINT LeftHandIndex2
                    {
                      OFFSET 6.367095 1e-06 0.0
                      CHANNELS 3 Zrotation Yrotation Xrotation
                      JOINT LeftHandIndex3
                      {
                        OFFSET 3.662364 0.0 0.0
                        CHANNELS 3 Zrotation Yrotation Xrotation
                        JOINT LeftHandIndex4
                        {
                          OFFSET 2.329242 4e-06 -4e-06
                          CHANNELS 3 Zrotation Yrotation Xrotation
                          JOINT LeftHandIndexEnd
                          {
                            OFFSET 2.767823 1e-06 0.0
                            CHANNELS 3 Zrotation Yrotation Xrotation
                          }
                        }
                      }
                    }
                  }
                  JOINT LeftHandMiddle1
                  {
                    OFFSET 3.163612 0.945023 -0.406112
                    CHANNELS 3 Zrotation Yrotation Xrotation
                    JOINT LeftHandMiddle2
                    {
                      OFFSET 6.276789 3e-06 0.0
                      CHANNELS 3 Zrotation Yrotation Xrotation
                      JOINT LeftHandMiddle3
                      {
                        OFFSET 4.35652 -1e-06 4e-06
                        CHANNELS 3 Zrotation Yrotation Xrotation
                        JOINT LeftHandMiddle4
                        {
                          OFFSET 2.996877 0.0 8e-06
                          CHANNELS 3 Zrotation Yrotation Xrotation
                          JOINT LeftHandMiddleEnd
                          {
                            OFFSET 2.323256 3e-06 -4e-06
                            CHANNELS 3 Zrotation Yrotation Xrotation
                          }
                        }
                      }
                    }
                  }
                  JOINT LeftHandRing1
                  {
                    OFFSET 2.882606 -0.309162 0.107445
                    CHANNELS 3 Zrotation Yrotation Xrotation
                    JOINT LeftHandRing2
                    {
                      OFFSET 6.033198 0.0 4e-06
                      CHANNELS 3 Zrotation Yrotation Xrotation
                      JOINT LeftHandRing3
                      {
                        OFFSET 4.350578 3e-06 0.0
                        CHANNELS 3 Zrotation Yrotation Xrotation
                        JOINT LeftHandRing4
                        {
                          OFFSET 2.651321 2e-06 -7e-06
                          CHANNELS 3 Zrotation Yrotation Xrotation
                          JOINT LeftHandRingEnd
                          {
                            OFFSET 1.937663 1e-06 -4e-06
                            CHANNELS 3 Zrotation Yrotation Xrotation
                          }
                        }
                      }
                    }
                  }
                  JOINT LeftHandPinky1
                  {
                    OFFSET 2.865315 -1.525436 0.575687
                    CHANNELS 3 Zrotation Yrotation Xrotation
                    JOINT LeftHandPinky2
                    {
                      OFFSET 5.54936 1e-06 -8e-06
                      CHANNELS 3 Zrotation Yrotation Xrotation
                      JOINT LeftHandPinky3
                      {
                        OFFSET 3.070974 0.0 -4e-06
                        CHANNELS 3 Zrotation Yrotation Xrotation
                        JOINT LeftHandPinky4
                        {
                          OFFSET 1.549672 1e-06 0.0
                          CHANNELS 3 Zrotation Yrotation Xrotation
                          JOINT LeftHandPinkyEnd
                          {
                            OFFSET 1.952123 0.0 0.0
                            CHANNELS 3 Zrotation Yrotation Xrotation
                          }
                        }
                      }
                    }
                  }
                }
              }
            }
          }
          JOINT RightShoulder
          {
            OFFSET 23.161716 5.296122 -1.380114
            CHANNELS 3 Zrotation Yrotation Xrotation
            JOINT RightArm
            {
              OFFSET -16.027195 -2e-06 1.1e-05
              CHANNELS 3 Zrotation Yrotation Xrotation
              JOINT RightForeArm
              {
                OFFSET -28.736639 4e-06 2e-06
                CHANNELS 3 Zrotation Yrotation Xrotation
                JOINT RightHand
                {
                  OFFSET -27.133619 6e-06 0.0
                  CHANNELS 3 Zrotation Yrotation Xrotation
                  JOINT RightHandThumb1
                  {
                    OFFSET -2.274328 -3.351035 -0.83067
                    CHANNELS 3 Zrotation Yrotation Xrotation
                    JOINT RightHandThumb2
                    {
                      OFFSET -4.703594 -3e-06 2e-06
                      CHANNELS 3 Zrotation Yrotation Xrotation
                      JOINT RightHandThumb3
                      {
                        OFFSET -2.794935 -4e-06 -3e-06
                        CHANNELS 3 Zrotation Yrotation Xrotation
                        JOINT RightHandThumbEnd
                        {
                          OFFSET -3.183852 4e-06 1e-06
                          CHANNELS 3 Zrotation Yrotation Xrotation
                        }
                      }
                    }
                  }
                  JOINT RightHandIndex1
                  {
                    OFFSET -3.253496 -2.33755 -0.127667
                    CHANNELS 3 Zrotation Yrotation Xrotation
                    JOINT RightHandIndex2
                    {
                      OFFSET -6.344434 0.0 0.0
                      CHANNELS 3 Zrotation Yrotation Xrotation
                      JOINT RightHandIndex3
                      {
                        OFFSET -3.654871 0.0 -8e-06
                        CHANNELS 3 Zrotation Yrotation Xrotation
                        JOINT RightHandIndex4
                        {
                          OFFSET -2.327586 -1e-06 0.0
                          CHANNELS 3 Zrotation Yrotation Xrotation
                          JOINT RightHandIndexEnd
                          {
                            OFFSET -2.770001 3e-06 8e-06
                            CHANNELS 3 Zrotation Yrotation Xrotation
                          }
                        }
                      }
                    }
                  }
                  JOINT RightHandMiddle1
                  {
                    OFFSET -3.168223 -0.944764 0.411762
                    CHANNELS 3 Zrotation Yrotation Xrotation
                    JOINT RightHandMiddle2
                    {
                      OFFSET -6.266691 -1e-06 -4e-06
                      CHANNELS 3 Zrotation Yrotation Xrotation
                      JOINT RightHandMiddle3
                      {
                        OFFSET -4.348901 0.0 0.0
                        CHANNELS 3 Zrotation Yrotation Xrotation
                        JOINT RightHandMiddle4
                        {
                          OFFSET -3.00024 2e-06 -4e-06
                          CHANNELS 3 Zrotation Yrotation Xrotation
                          JOINT RightHandMiddleEnd
                          {
                            OFFSET -2.321477 -4e-06 -4e-06
                            CHANNELS 3 Zrotation Yrotation Xrotation
                          }
                        }
                      }
                    }
                  }
                  JOINT RightHandRing1
                  {
                    OFFSET -2.885654 0.293261 -0.119232
                    CHANNELS 3 Zrotation Yrotation Xrotation
                    JOINT RightHandRing2
                    {
                      OFFSET -6.032835 -1e-06 -4e-06
                      CHANNELS 3 Zrotation Yrotation Xrotation
                      JOINT RightHandRing3
                      {
                        OFFSET -4.33881 0.0 -4e-06
                        CHANNELS 3 Zrotation Yrotation Xrotation
                        JOINT RightHandRing4
                        {
                          OFFSET -2.654903 -4e-06 -4e-06
                          CHANNELS 3 Zrotation Yrotation Xrotation
                          JOINT RightHandRingEnd
                          {
                            OFFSET -1.935122 0.0 4e-06
                            CHANNELS 3 Zrotation Yrotation Xrotation
                          }
                        }
                      }
                    }
                  }
                  JOINT RightHandPinky1
                  {
                    OFFSET -2.866241 1.503904 -0.60527
                    CHANNELS 3 Zrotation Yrotation Xrotation
                    JOINT RightHandPinky2
                    {
                      OFFSET -5.553177 -2e-06 0.0
                      CHANNELS 3 Zrotation Yrotation Xrotation
                      JOINT RightHandPinky3
                      {
                        OFFSET -3.062664 -1e-06 -4e-06
                        CHANNELS 3 Zrotation Yrotation Xrotation
                        JOINT RightHandPinky4
                        {
                          OFFSET -1.546529 2e-06 4e-06
                          CHANNELS 3 Zrotation Yrotation Xrotation
                          JOINT RightHandPinkyEnd
                          {
                            OFFSET -1.952341 0.0 -4e-06
                            CHANNELS 3 Zrotation Yrotation Xrotation
                          }
                        }
                      }
                    }
                  }
                }
              }
            }
          }
        }
      }
    }
    JOINT LeftLeg
    {
      OFFSET -8.443107 2.567604 10.043214
      CHANNELS 3 Zrotation Yrotation Xrotation
      JOINT LeftShin
      {
        OFFSET 43.229198 1e-06 -1e-06
        CHANNELS 3 Zrotation Yrotation Xrotation
        JOINT LeftFoot
        {
          OFFSET 42.298611 1e-06 1e-06
          CHANNELS 3 Zrotation Yrotation Xrotation
          JOINT LeftToeBase
          {
            OFFSET 14.165858 1e-06 0.0
            CHANNELS 3 Zrotation Yrotation Xrotation
            JOINT LeftToeEnd
            {
              OFFSET 6.7141 -0.234461 0.0
              CHANNELS 3 Zrotation Yrotation Xrotation
            }
          }
        }
      }
    }
    JOINT RightLeg
    {
      OFFSET -8.303923 2.592729 -10.047278
      CHANNELS 3 Zrotation Yrotation Xrotation
      JOINT RightShin
      {
        OFFSET -43.369682 0.0 1e-06
        CHANNELS 3 Zrotation Yrotation Xrotation
        JOINT RightFoot
        {
          OFFSET -42.260784 4e-06 2e-06
          CHANNELS 3 Zrotation Yrotation Xrotation
          JOINT RightToeBase
          {
            OFFSET -14.222245 -2e-06 -1e-06
            CHANNELS 3 Zrotation Yrotation Xrotation
            JOINT RightToeEnd
            {
              OFFSET -6.660062 0.232574 -2e-06
              CHANNELS 3 Zrotation Yrotation Xrotation
            }
          }
        }
      }
    }
  }
}
MOTION
Frames: 4
Frame Time: 0.03333333333333333
0.0 0.0 0.0 0.0 -0.0 0.0 2.965116 87.238907 -7.174525 100.947815 4.051078 88.675415 10.405136 -5.000307 -0.485925 -6.95674 -2.540378 0.193732 23.36759 -9.290541 -4.160337 23.229551 6.357439 3.478532 -2.434297 -0.936606 -4.687166 -40.705891 9.783537 -15.245872 7e-06 -0.0 2e-06 -0.006868 -0.010078 0.158329 -0.108195 -0.038175 0.136118 -0.190337 0.015997 0.187269 -109.904778 -79.939598 126.209381 46.433018 -49.051216 -33.295502 105.439568 -0.482987 -1.217252 9.491982 0.28629 18.925549 17.636631 -26.322725 52.411182 -19.466661 -14.395598 29.410381 0.0 -8.774822 -2e-06 15.950727 -18.033888 6.813752 -0.609777 -1.795653 -3.889328 -4.807087 -11.04681 -2.937851 4e-06 -20.976015 -0.0 -5.019969 -25.033556 -4.03188 6e-06 0.0 1e-06 -10.634535 -5.686967 -3.565588 10.573275 -17.922951 -3.113901 3e-06 -13.821209 -0.0 -0.501775 -31.181505 -4.027015 -11.704077 -61.44603 7.836678 -13.982714 -7.150198 -2.875041 13.772729 -8.401489 -3.218241 0.347734 -34.211544 0.771654 -0.963026 -17.733368 2.621018 -0.0 0.0 -1e-06 -17.346416 -20.095215 -4.201784 21.757557 -1.638378 3.86643 3e-06 -6.338822 1e-06 -1.697588 -22.59174 -6.194006 -0.0 -5e-06 -1e-06 106.834366 -74.506828 94.107307 -22.188478 -66.869766 60.827316 52.001678 -1.247099 -0.206447 -1.481392 3.208312 -6.678713 22.18211 -20.375895 49.933327 -16.701813 -16.74353 28.476536 -3e-06 -12.690601 0.0 15.841219 -17.488903 3.403713 -0.105919 -1.513856 -4.275883 -5.039041 -5.612871 -2.953557 4e-06 -11.020523 -2e-06 -6.111296 -15.89533 -3.840472 1e-06 -1e-06 0.0 -10.283371 -5.680288 -4.341839 11.028296 -11.302406 -2.372633 -1.384267 -14.238579 -6.320123 -0.625438 -26.924191 -3.827602 -4.457276 -50.747375 -3.198581 -13.708524 -7.363476 -3.720939 18.14115 -14.052737 -3.242676 5e-06 -18.787266 -2e-06 -0.429712 -8.456043 2.555504 -0.0 0.0 -0.0 -15.923532 -20.094482 -5.473587 30.419214 -7.190826 1.735924 2e-06 -8.162927 -1e-06 -1.861903 -22.861467 -6.167942 0.0 -3e-06 -1e-06 164.739685 -11.274123 -7.242071 50.096756 -0.273279 0.588835 -94.341255 8.162441 -21.068531 -7.309067 1.643435 2.146646 -0.999999 -0.0 0.0 -27.705887 -7.07644 -8.723201 91.215515 0.192105 -0.000744 -87.18795 -14.004753 -0.759492 -9.006828 1.023178 1.992172 -1.000003 -0.0 0.0 
0.0 0.0 0.0 0.0 -0.0 0.0 3.600452 87.777977 -0.838255 98.91227 4.341436 85.165581 10.764713 -4.120378 -0.711778 -7.047359 -2.276478 -0.987694 21.993042 -7.420027 -5.447232 23.310364 7.695623 3.246416 -2.463163 -0.854334 -5.668033 -40.585136 8.94809 -15.093233 6e-06 0.0 -1e-06 -0.036133 -0.021159 0.094142 0.072913 0.006586 0.114533 -0.014647 -0.049364 0.073023 -92.569046 -81.448845 107.652374 50.297882 -53.642937 -33.685825 110.407211 -1.446755 -1.324356 9.373807 -0.856763 21.825491 17.636633 -26.322737 52.411213 -19.466669 -14.395598 29.410398 2e-06 -8.774821 -0.0 15.571597 -17.931015 6.71091 -0.609777 -1.795653 -3.889329 -4.80709 -11.04681 -2.93785 5e-06 -20.976021 -1e-06 -5.019969 -25.033564 -4.031882 6e-06 -0.0 -1e-06 -10.634536 -5.686972 -3.565589 10.573277 -17.922955 -3.113901 4e-06 -13.821209 0.0 -0.501773 -31.181511 -4.027018 -11.408741 -60.504406 7.502555 -13.982718 -7.150199 -2.875043 13.772734 -8.401496 -3.218244 0.347736 -34.211559 0.771653 -0.963027 -17.733376 2.621019 0.0 0.0 -0.0 -17.34642 -20.095224 -4.201784 21.757561 -1.638377 3.866426 1e-06 -6.338821 1e-06 -1.697588 -22.591745 -6.194007 1e-06 -4e-06 -0.0 112.297379 -72.109947 88.587387 -29.50559 -61.560318 73.835342 59.03767 -1.328781 0.4391 -3.277527 0.962428 2.942715 22.182117 -20.375898 49.933327 -16.701813 -16.74353 28.476532 -3e-06 -12.690605 -1e-06 15.545624 -17.369257 2.96241 -0.105919 -1.513856 -4.275882 -5.039042 -5.61287 -2.953557 3e-06 -11.020525 -2e-06 -6.111298 -15.895334 -3.840472 -1e-06 -1e-06 0.0 -10.283373 -5.680289 -4.341838 11.028299 -11.302407 -2.372633 -1.384268 -14.238583 -6.320122 -0.625439 -26.924191 -3.827601 -4.091856 -49.87944 -3.708943 -13.708524 -7.363475 -3.720941 18.141153 -14.052742 -3.242676 6e-06 -18.78727 -1e-06 -0.429711 -8.456047 2.555504 0.0 -0.0 -0.0 -15.923538 -20.094484 -5.473586 30.419222 -7.190831 1.735927 2e-06 -8.162925 -1e-06 -1.861902 -22.861479 -6.167943 1e-06 -3e-06 -1e-06 171.84584 -12.821338 -9.451766 48.160423 -0.366623 0.866545 -96.780548 7.494044 -21.9646 -7.184584 1.649646 2.17919 -0.999999 0.0 0.0 -34.386452 -6.079511 -12.477573 83.672935 0.7391 -0.351513 -89.060143 -14.587093 1.708806 -8.566313 0.88478 1.785503 -1.0 -0.0 1e-06 
0.0 0.0 0.0 0.0 -0.0 0.0 4.206933 88.538635 7.316163 96.750374 4.36938 80.970375 10.712252 -3.250038 -1.112437 -7.362414 -2.102485 -2.313461 20.287107 -5.446775 -6.682628 24.640568 9.596667 2.929207 -2.514576 -0.797393 -6.202816 -40.245384 7.451031 -14.244503 6e-06 0.0 -0.0 -0.079453 -0.030493 0.091936 0.104018 -0.024882 0.131111 0.019953 -0.032487 0.04909 -72.988617 -81.924423 87.483116 52.874001 -58.269157 -34.316769 116.075394 -1.600193 -0.916808 9.037475 -2.103891 22.994482 17.636629 -26.322721 52.411182 -19.466661 -14.395597 29.410385 -1e-06 -8.774822 -2e-06 15.75034 -18.428093 6.470073 -0.609775 -1.795655 -3.889328 -4.80709 -11.046811 -2.937848 6e-06 -20.976015 -2e-06 -5.01997 -25.033558 -4.031881 6e-06 0.0 0.0 -10.634535 -5.686969 -3.565585 10.573275 -17.922951 -3.1139 2e-06 -13.821209 1e-06 -0.501775 -31.181505 -4.027017 -11.793616 -60.307785 7.459515 -13.982714 -7.150196 -2.875041 13.77273 -8.401494 -3.218243 0.347735 -34.211552 0.771653 -0.963029 -17.73337 2.62102 0.0 -0.0 -1e-06 -17.346422 -20.095217 -4.201783 21.757563 -1.638374 3.866427 1e-06 -6.338824 0.0 -1.697589 -22.591745 -6.194008 -0.0 -4e-06 -1e-06 117.066124 -70.292122 83.265465 -32.626431 -56.073662 77.331238 68.897423 -0.193608 0.996621 -0.716338 3.951302 4.426411 22.182116 -20.375891 49.933304 -16.701809 -16.743528 28.476519 -3e-06 -12.690598 -1e-06 16.088387 -17.155588 2.693026 -0.10592 -1.513856 -4.27588 -5.03904 -5.612871 -2.953556 4e-06 -11.02052 -1e-06 -6.111299 -15.89533 -3.840469 -0.0 -2e-06 -0.0 -10.283372 -5.680288 -4.341837 11.028295 -11.302403 -2.372632 -1.384269 -14.238581 -6.320119 -0.62544 -26.924189 -3.8276 -3.920199 -50.323128 -3.591306 -13.708526 -7.363476 -3.720937 18.141148 -14.052737 -3.242672 5e-06 -18.787268 -1e-06 -0.429711 -8.456041 2.555504 -0.0 1e-06 0.0 -15.923538 -20.094482 -5.47358 30.41921 -7.190824 1.735926 2e-06 -8.162927 -1e-06 -1.861903 -22.861467 -6.167941 -0.0 -4e-06 -1e-06 179.995667 -13.57962 -12.402898 44.722595 -0.46882 0.813521 -96.198555 7.188873 -23.50263 -8.773215 1.691098 2.249278 -1.0 0.0 -0.0 -37.996994 -4.096795 -18.270344 71.68351 0.61453 -0.594486 -89.646477 -10.288858 2.684516 -8.373501 0.820131 1.649642 -1.000003 1e-06 -0.0 
0.0 0.0 0.0 0.0 -0.0 0.0 4.113909 89.391724 15.491801 95.300041 4.180425 77.419365 9.896159 -2.777896 -1.451038 -7.769233 -2.068252 -3.471358 19.314514 -3.957773 -8.042929 26.250515 12.619828 3.15237 -2.511717 -0.937824 -6.968105 -39.514019 5.986412 -13.79004 6e-06 -1e-06 1e-06 -0.09418 -0.034031 0.129402 0.091227 -0.044126 0.163596 0.029284 -0.018209 0.087246 -61.94574 -81.797066 76.828835 54.668209 -60.959038 -34.302044 121.063507 -1.552941 -0.490855 9.111293 -2.632594 23.319635 17.636648 -26.322723 52.411198 -19.466663 -14.395594 29.410389 1e-06 -8.774822 -4e-06 16.094505 -18.526205 6.275266 -0.609779 -1.795652 -3.88933 -4.807091 -11.046814 -2.93785 3e-06 -20.976021 -4e-06 -5.019972 -25.033562 -4.031884 6e-06 -0.0 1e-06 -10.634538 -5.686973 -3.565589 10.573274 -17.922951 -3.113901 2e-06 -13.821209 -1e-06 -0.501777 -31.181505 -4.027019 -12.129958 -60.750813 7.53135 -13.982719 -7.1502 -2.875047 13.772731 -8.401493 -3.21824 0.347732 -34.211555 0.771655 -0.963028 -17.733372 2.621019 -1e-06 3e-06 -1e-06 -17.346424 -20.095221 -4.201785 21.757561 -1.638375 3.866431 2e-06 -6.338822 -0.0 -1.697588 -22.591747 -6.194009 0.0 -4e-06 -3e-06 118.13755 -69.314415 81.811577 -32.05019 -52.36536 75.735535 78.099106 0.399151 1.559989 2.080973 6.823063 6.959952 22.182123 -20.375891 49.933323 -16.701817 -16.74353 28.476532 -3e-06 -12.690605 -1e-06 16.373934 -17.403477 2.324982 -0.105919 -1.513856 -4.275881 -5.039042 -5.612872 -2.953557 4e-06 -11.020523 -2e-06 -6.111299 -15.895332 -3.840472 -0.0 0.0 -0.0 -10.283373 -5.680289 -4.341839 11.028297 -11.302404 -2.372633 -1.38427 -14.238579 -6.320122 -0.625437 -26.924191 -3.827603 -4.092053 -50.078068 -3.696111 -13.708527 -7.363477 -3.720941 18.141153 -14.052739 -3.242675 6e-06 -18.787266 -3e-06 -0.429712 -8.45604 2.555504 -0.0 1e-06 -0.0 -15.923539 -20.094484 -5.473586 30.419214 -7.190825 1.735927 4e-06 -8.162925 -1e-06 -1.861901 -22.861467 -6.167943 -0.0 -6e-06 -1e-06 -173.534729 -13.282445 -13.398507 43.566032 -0.457644 0.704153 -90.574356 7.305761 -23.485308 -14.655534 1.788282 2.215482 -1.0 0.0 0.0 -37.409798 -0.878312 -23.499683 56.413971 0.449876 -0.622436 -87.844727 -4.838034 1.003144 -8.506049 0.722705 1.51246 -1.000002 1e-06 1e-06 
